<?xml version="1.0" standalone="no"?>
<!DOCTYPE svg PUBLIC "-//W3C//DTD SVG 20010904//EN"
 "http://www.w3.org/TR/2001/REC-SVG-20010904/DTD/svg10.dtd">
<svg version="1.0" xmlns="http://www.w3.org/2000/svg"
 width="21.000000pt" height="21.000000pt" viewBox="0 0 21.000000 21.000000"
 preserveAspectRatio="xMidYMid meet">

<g transform="translate(0.000000,21.000000) scale(0.100000,-0.100000)"
fill="#000000" stroke="none">
<path d="M0 202 c0 -4 18 -26 40 -47 22 -21 40 -44 40 -49 0 -6 -19 -29 -42
-53 -55 -56 -41 -70 15 -15 24 23 47 42 52 42 5 0 28 -19 52 -42 56 -55 70
-41 15 15 -23 24 -42 47 -42 52 0 5 19 28 42 52 55 56 41 70 -15 15 -24 -23
-47 -42 -53 -42 -5 0 -28 18 -49 40 -38 39 -55 49 -55 32z"/>
</g>
</svg>
